<?xml version="1.0" encoding="UTF-8" standalone="no"?>
<!-- Generator: Adobe Illustrator 19.1.0, SVG Export Plug-In . SVG Version: 6.00 Build 0)  -->

<svg
   xmlns:dc="http://purl.org/dc/elements/1.1/"
   xmlns:cc="http://creativecommons.org/ns#"
   xmlns:rdf="http://www.w3.org/1999/02/22-rdf-syntax-ns#"
   xmlns:svg="http://www.w3.org/2000/svg"
   xmlns="http://www.w3.org/2000/svg"
   xmlns:sodipodi="http://sodipodi.sourceforge.net/DTD/sodipodi-0.dtd"
   xmlns:inkscape="http://www.inkscape.org/namespaces/inkscape"
   version="1.1"
   id="Capa_1"
   x="0px"
   y="0px"
   viewBox="0 0 475.2 475.2"
   style="enable-background:new 0 0 475.2 475.2;"
   xml:space="preserve"
   sodipodi:docname="add.svg"
   inkscape:version="0.92.5 (2060ec1f9f, 2020-04-08)"><metadata
   id="metadata45"><rdf:RDF><cc:Work
       rdf:about=""><dc:format>image/svg+xml</dc:format><dc:type
         rdf:resource="http://purl.org/dc/dcmitype/StillImage" /><dc:title /></cc:Work></rdf:RDF></metadata><defs
   id="defs43">
	

		
		
	
</defs><sodipodi:namedview
   pagecolor="#ffffff"
   bordercolor="#666666"
   borderopacity="1"
   objecttolerance="10"
   gridtolerance="10"
   guidetolerance="10"
   inkscape:pageopacity="0"
   inkscape:pageshadow="2"
   inkscape:window-width="1366"
   inkscape:window-height="744"
   id="namedview41"
   showgrid="false"
   inkscape:zoom="0.49663298"
   inkscape:cx="-164.10509"
   inkscape:cy="229.54577"
   inkscape:window-x="0"
   inkscape:window-y="0"
   inkscape:window-maximized="1"
   inkscape:current-layer="Capa_1" />
















<path
   style="fill:#f0c38e;fill-opacity:0"
   d="m 407.38803,69.6 c -44.9,-44.9 -104.5,-69.6 -168,-69.6 -63.5,0 -123.1,24.7 -167.999997,69.6 -44.9,44.9 -69.5999987,104.5 -69.5999987,168 0,63.5 24.6999987,123.1 69.5999987,168 44.899997,44.9 104.499997,69.6 167.999997,69.6 63.5,0 123.1,-24.7 168,-69.6 44.9,-44.9 69.6,-104.5 69.6,-168 0,-63.5 -24.7,-123.1 -69.6,-168 z m -19.1,316.9 c -39.8,39.8 -92.7,61.7 -148.9,61.7 -56.2,0 -109.1,-21.9 -148.899997,-61.7 -82.0999987,-82.1 -82.0999987,-215.7 0,-297.8 C 130.28803,48.9 183.18803,27 239.38803,27 c 56.2,0 109.1,21.9 148.9,61.7 82.1,82.1 82.1,215.7 0,297.8 z"
   id="path2"
   inkscape:connector-curvature="0" /><g
   style="fill:#f0c38e"
   id="g10">
</g><g
   style="fill:#f0c38e"
   id="g12">
</g><g
   style="fill:#f0c38e"
   id="g14">
</g><g
   style="fill:#f0c38e"
   id="g16">
</g><g
   style="fill:#f0c38e"
   id="g18">
</g><g
   style="fill:#f0c38e"
   id="g20">
</g><g
   style="fill:#f0c38e"
   id="g22">
</g><g
   style="fill:#f0c38e"
   id="g24">
</g><g
   style="fill:#f0c38e"
   id="g26">
</g><g
   style="fill:#f0c38e"
   id="g28">
</g><g
   style="fill:#f0c38e"
   id="g30">
</g><g
   style="fill:#f0c38e"
   id="g32">
</g><g
   style="fill:#f0c38e"
   id="g34">
</g><g
   style="fill:#f0c38e"
   id="g36">
</g><g
   style="fill:#f0c38e"
   id="g38">
</g><text
   xml:space="preserve"
   style="font-style:normal;font-variant:normal;font-weight:normal;font-stretch:normal;font-size:466.00924683px;line-height:1.25;font-family:aakar;-inkscape-font-specification:aakar;letter-spacing:0px;word-spacing:0px;fill:#f0c38e;fill-opacity:1;stroke:none;stroke-width:11.65023136"
   x="111.05346"
   y="350.91669"
   id="text73"><tspan
     sodipodi:role="line"
     id="tspan71"
     x="111.05346"
     y="350.91669"
     style="fill:#f0c38e;stroke-width:11.65023136">+</tspan></text>
</svg>