<?xml version="1.0" encoding="UTF-8" standalone="no"?>
<!-- Generator: Adobe Illustrator 19.1.0, SVG Export Plug-In . SVG Version: 6.00 Build 0)  -->

<svg
   xmlns:dc="http://purl.org/dc/elements/1.1/"
   xmlns:cc="http://creativecommons.org/ns#"
   xmlns:rdf="http://www.w3.org/1999/02/22-rdf-syntax-ns#"
   xmlns:svg="http://www.w3.org/2000/svg"
   xmlns="http://www.w3.org/2000/svg"
   xmlns:sodipodi="http://sodipodi.sourceforge.net/DTD/sodipodi-0.dtd"
   xmlns:inkscape="http://www.inkscape.org/namespaces/inkscape"
   version="1.1"
   id="Capa_1"
   x="0px"
   y="0px"
   viewBox="0 0 486.4 486.4"
   style="enable-background:new 0 0 486.4 486.4;"
   xml:space="preserve"
   sodipodi:docname="delete.svg"
   inkscape:version="0.92.5 (2060ec1f9f, 2020-04-08)"><metadata
   id="metadata49"><rdf:RDF><cc:Work
       rdf:about=""><dc:format>image/svg+xml</dc:format><dc:type
         rdf:resource="http://purl.org/dc/dcmitype/StillImage" /></cc:Work></rdf:RDF></metadata><defs
   id="defs47" /><sodipodi:namedview
   pagecolor="#ffffff"
   bordercolor="#666666"
   borderopacity="1"
   objecttolerance="10"
   gridtolerance="10"
   guidetolerance="10"
   inkscape:pageopacity="0"
   inkscape:pageshadow="2"
   inkscape:window-width="1366"
   inkscape:window-height="744"
   id="namedview45"
   showgrid="false"
   inkscape:zoom="0.48519737"
   inkscape:cx="139.11864"
   inkscape:cy="234.95593"
   inkscape:window-x="0"
   inkscape:window-y="0"
   inkscape:window-maximized="1"
   inkscape:current-layer="Capa_1" />
<path
   style="fill:#f0c38e;fill-opacity:0;stroke-width:1.01734865"
   d="M 416.17557,73.98034 C 370.49662,28.301388 309.86264,3.1728768 245.26101,3.1728768 180.65937,3.1728768 120.02539,28.301388 74.34644,73.98034 28.667488,119.65929 3.5389777,180.29326 3.5389777,244.8949 c 0,64.60164 25.1285103,125.23561 70.8074623,170.91456 45.67895,45.67896 106.31293,70.80747 170.91457,70.80747 64.60163,0 125.23561,-25.12851 170.91456,-70.80747 45.67895,-45.67895 70.80746,-106.31292 70.80746,-170.91456 0,-64.60164 -25.12851,-125.23561 -70.80746,-170.91456 z m -19.43136,322.39777 c -40.49047,40.49047 -94.30821,62.7704 -151.4832,62.7704 -57.17499,0 -110.99273,-22.27993 -151.483211,-62.7704 -83.52432,-83.52432 -83.52432,-219.4421 0,-302.966412 40.490481,-40.490474 94.308221,-62.770409 151.483211,-62.770409 57.17499,0 110.99273,22.279935 151.4832,62.770409 83.52432,83.524312 83.52432,219.442092 0,302.966412 z"
   id="path2-3"
   inkscape:connector-curvature="0" /><g
   id="g12"
   style="fill:#f0c38e;fill-opacity:1"
   transform="matrix(0.58195789,0,0,0.58195789,103.72884,103.36274)">
	<g
   id="g10"
   style="fill:#f0c38e;fill-opacity:1">
		<path
   d="M 446,70 H 344.8 V 53.5 C 344.8,24 320.8,0 291.3,0 H 195.1 C 165.6,0 141.6,24 141.6,53.5 V 70 H 40.4 c -7.5,0 -13.5,6 -13.5,13.5 0,7.5 6,13.5 13.5,13.5 h 24.4 v 317.2 c 0,39.8 32.4,72.2 72.2,72.2 h 212.4 c 39.8,0 72.2,-32.4 72.2,-72.2 V 97 H 446 c 7.5,0 13.5,-6 13.5,-13.5 C 459.5,76 453.5,70 446,70 Z M 168.6,53.5 C 168.6,38.9 180.5,27 195.1,27 h 96.2 c 14.6,0 26.5,11.9 26.5,26.5 V 70 H 168.6 Z m 226,360.7 c 0,24.9 -20.3,45.2 -45.2,45.2 H 137 c -24.9,0 -45.2,-20.3 -45.2,-45.2 V 97 h 302.9 v 317.2 z"
   id="path2"
   style="fill:#f0c38e;fill-opacity:1"
   inkscape:connector-curvature="0" />
		<path
   d="m 243.2,411 c 7.5,0 13.5,-6 13.5,-13.5 V 158.9 c 0,-7.5 -6,-13.5 -13.5,-13.5 -7.5,0 -13.5,6 -13.5,13.5 v 238.5 c 0,7.5 6,13.6 13.5,13.6 z"
   id="path4"
   style="fill:#f0c38e;fill-opacity:1"
   inkscape:connector-curvature="0" />
		<path
   d="m 155.1,396.1 c 7.5,0 13.5,-6 13.5,-13.5 V 173.7 c 0,-7.5 -6,-13.5 -13.5,-13.5 -7.5,0 -13.5,6 -13.5,13.5 v 208.9 c 0,7.5 6.1,13.5 13.5,13.5 z"
   id="path6"
   style="fill:#f0c38e;fill-opacity:1"
   inkscape:connector-curvature="0" />
		<path
   d="m 331.3,396.1 c 7.5,0 13.5,-6 13.5,-13.5 V 173.7 c 0,-7.5 -6,-13.5 -13.5,-13.5 -7.5,0 -13.5,6 -13.5,13.5 v 208.9 c 0,7.5 6,13.5 13.5,13.5 z"
   id="path8"
   style="fill:#f0c38e;fill-opacity:1"
   inkscape:connector-curvature="0" />
	</g>
</g>
<g
   id="g14">
</g>
<g
   id="g16">
</g>
<g
   id="g18">
</g>
<g
   id="g20">
</g>
<g
   id="g22">
</g>
<g
   id="g24">
</g>
<g
   id="g26">
</g>
<g
   id="g28">
</g>
<g
   id="g30">
</g>
<g
   id="g32">
</g>
<g
   id="g34">
</g>
<g
   id="g36">
</g>
<g
   id="g38">
</g>
<g
   id="g40">
</g>
<g
   id="g42">
</g>
</svg>