<?xml version="1.0" encoding="UTF-8" standalone="no"?>
<!-- Generator: Adobe Illustrator 19.1.0, SVG Export Plug-In . SVG Version: 6.00 Build 0)  -->

<svg
   xmlns:dc="http://purl.org/dc/elements/1.1/"
   xmlns:cc="http://creativecommons.org/ns#"
   xmlns:rdf="http://www.w3.org/1999/02/22-rdf-syntax-ns#"
   xmlns:svg="http://www.w3.org/2000/svg"
   xmlns="http://www.w3.org/2000/svg"
   xmlns:sodipodi="http://sodipodi.sourceforge.net/DTD/sodipodi-0.dtd"
   xmlns:inkscape="http://www.inkscape.org/namespaces/inkscape"
   version="1.1"
   id="Capa_1"
   x="0px"
   y="0px"
   viewBox="0 0 475.2 475.2"
   style="enable-background:new 0 0 475.2 475.2;"
   xml:space="preserve"
   sodipodi:docname="done.svg"
   inkscape:version="0.92.5 (2060ec1f9f, 2020-04-08)"><metadata
   id="metadata45"><rdf:RDF><cc:Work
       rdf:about=""><dc:format>image/svg+xml</dc:format><dc:type
         rdf:resource="http://purl.org/dc/dcmitype/StillImage" /><dc:title /></cc:Work></rdf:RDF></metadata><defs
   id="defs43">
	

		
		
	
</defs><sodipodi:namedview
   pagecolor="#ffffff"
   bordercolor="#666666"
   borderopacity="1"
   objecttolerance="10"
   gridtolerance="10"
   guidetolerance="10"
   inkscape:pageopacity="0"
   inkscape:pageshadow="2"
   inkscape:window-width="1366"
   inkscape:window-height="744"
   id="namedview41"
   showgrid="false"
   inkscape:zoom="0.49663298"
   inkscape:cx="131.88814"
   inkscape:cy="237.60001"
   inkscape:window-x="0"
   inkscape:window-y="0"
   inkscape:window-maximized="1"
   inkscape:current-layer="Capa_1" />
















<g
   style="fill:#f0c38e"
   id="g10">
</g><g
   style="fill:#f0c38e"
   id="g12">
</g><g
   style="fill:#f0c38e"
   id="g14">
</g><g
   style="fill:#f0c38e"
   id="g16">
</g><g
   style="fill:#f0c38e"
   id="g18">
</g><g
   style="fill:#f0c38e"
   id="g20">
</g><g
   style="fill:#f0c38e"
   id="g22">
</g><g
   style="fill:#f0c38e"
   id="g24">
</g><g
   style="fill:#f0c38e"
   id="g26">
</g><g
   style="fill:#f0c38e"
   id="g28">
</g><g
   style="fill:#f0c38e"
   id="g30">
</g><g
   style="fill:#f0c38e"
   id="g32">
</g><g
   style="fill:#f0c38e"
   id="g34">
</g><g
   style="fill:#f0c38e"
   id="g36">
</g><g
   style="fill:#f0c38e"
   id="g38">
</g><g
   id="g25"
   style="fill:#312c51"><path
     inkscape:connector-curvature="0"
     id="path2"
     d="m 407.38803,69.6 c -44.9,-44.9 -104.5,-69.6 -168,-69.6 -63.5,0 -123.1,24.7 -167.999997,69.6 -44.9,44.9 -69.5999987,104.5 -69.5999987,168 0,63.5 24.6999987,123.1 69.5999987,168 44.899997,44.9 104.499997,69.6 167.999997,69.6 63.5,0 123.1,-24.7 168,-69.6 44.9,-44.9 69.6,-104.5 69.6,-168 0,-63.5 -24.7,-123.1 -69.6,-168 z m -19.1,316.9 c -39.8,39.8 -92.7,61.7 -148.9,61.7 -56.2,0 -109.1,-21.9 -148.899997,-61.7 -82.0999987,-82.1 -82.0999987,-215.7 0,-297.8 C 130.28803,48.9 183.18803,27 239.38803,27 c 56.2,0 109.1,21.9 148.9,61.7 82.1,82.1 82.1,215.7 0,297.8 z"
     style="fill:#312c51" /><path
     inkscape:connector-curvature="0"
     d="m 153.87466,251.68789 c 17.94909,10.04716 34.22359,22.04371 47.50588,35.88304 2.6667,2.77854 5.07286,5.7052 7.60929,8.55779 8.94319,10.9031 16.18082,22.60077 22.31602,34.62183 4.42387,9.25012 4.17202,6.9089 -23.82684,12.5397 -1.71595,0.34509 0.0157,-2.77979 -0.044,-4.16858 -0.65954,-15.36519 -0.73139,0.5026 0.0251,-22.19703 0.54748,-22.33695 4.05885,-44.42556 12.49966,-65.83612 6.91951,-17.55174 16.59099,-34.30146 26.97748,-50.71818 4.7398,-7.49165 9.99765,-14.77467 14.99649,-22.16199 15.56788,-21.84113 33.3297,-43.00123 57.31637,-59.71403 9.39412,-4.94463 28.37461,-21.791145 34.11245,-12.47632 0.0959,0.54295 0.75003,1.37971 0.0737,1.79643 0,0 -26.33739,9.36777 -26.33739,9.36777 v 0 c 0.26391,-0.96771 0.2621,0.17894 0.95869,-0.22493 0.75021,0.43734 0.0212,0.84197 0.0286,0.83865 43.20735,-19.307075 25.47683,-12.11902 16.76167,-7.41523 -26.24913,16.41584 -45.70599,38.1328 -62.60584,60.68009 -5.18591,7.41775 -10.67574,14.70965 -15.55772,22.25324 -10.47484,16.18563 -20.08131,32.7938 -26.72097,50.23461 -7.98628,20.97808 -10.70186,42.56466 -10.06135,64.37362 0.34034,4.60362 0.5245,9.21599 1.02102,13.81087 0.26391,2.44234 0.80617,4.86145 1.25875,7.2867 0.25384,1.36024 2.21621,3.19763 0.86029,4.06861 -27.12234,17.42213 -23.04922,18.16192 -26.39834,8.35674 -4.74468,-12.28 -11.5747,-24.00407 -20.26764,-34.88419 -2.46113,-2.83009 -4.78697,-5.73555 -7.38337,-8.49026 -13.01309,-13.80651 -29.22553,-25.94167 -48.34969,-34.39245 0,0 23.23161,-11.99038 23.23161,-11.99038 z"
     id="path43"
     style="opacity:1;fill:#312c51;fill-opacity:1;stroke:none;stroke-width:0.85043794;stroke-opacity:1" /></g></svg>