<?xml version="1.0" encoding="UTF-8" standalone="no"?>
<!-- Generator: Adobe Illustrator 19.1.0, SVG Export Plug-In . SVG Version: 6.00 Build 0)  -->

<svg
   xmlns:dc="http://purl.org/dc/elements/1.1/"
   xmlns:cc="http://creativecommons.org/ns#"
   xmlns:rdf="http://www.w3.org/1999/02/22-rdf-syntax-ns#"
   xmlns:svg="http://www.w3.org/2000/svg"
   xmlns="http://www.w3.org/2000/svg"
   xmlns:sodipodi="http://sodipodi.sourceforge.net/DTD/sodipodi-0.dtd"
   xmlns:inkscape="http://www.inkscape.org/namespaces/inkscape"
   version="1.1"
   id="Capa_1"
   x="0px"
   y="0px"
   viewBox="0 0 469.331 469.331"
   style="enable-background:new 0 0 469.331 469.331;"
   xml:space="preserve"
   sodipodi:docname="edit.svg"
   inkscape:version="0.92.5 (2060ec1f9f, 2020-04-08)"><metadata
   id="metadata41"><rdf:RDF><cc:Work
       rdf:about=""><dc:format>image/svg+xml</dc:format><dc:type
         rdf:resource="http://purl.org/dc/dcmitype/StillImage" /><dc:title></dc:title></cc:Work></rdf:RDF></metadata><defs
   id="defs39" /><sodipodi:namedview
   pagecolor="#ffffff"
   bordercolor="#666666"
   borderopacity="1"
   objecttolerance="10"
   gridtolerance="10"
   guidetolerance="10"
   inkscape:pageopacity="0"
   inkscape:pageshadow="2"
   inkscape:window-width="1366"
   inkscape:window-height="744"
   id="namedview37"
   showgrid="false"
   inkscape:zoom="0.50284342"
   inkscape:cx="165.06133"
   inkscape:cy="234.6655"
   inkscape:window-x="0"
   inkscape:window-y="0"
   inkscape:window-maximized="1"
   inkscape:current-layer="Capa_1" />

<g
   id="g6">
</g>
<g
   id="g8">
</g>
<g
   id="g10">
</g>
<g
   id="g12">
</g>
<g
   id="g14">
</g>
<g
   id="g16">
</g>
<g
   id="g18">
</g>
<g
   id="g20">
</g>
<g
   id="g22">
</g>
<g
   id="g24">
</g>
<g
   id="g26">
</g>
<g
   id="g28">
</g>
<g
   id="g30">
</g>
<g
   id="g32">
</g>
<g
   id="g34">
</g>
<g
   id="g4"
   style="fill:#f0c38e"
   transform="matrix(0.63554974,0,0,0.63554974,84.982133,88.050249)">
	<path
   d="m 438.931,30.403 c -40.4,-40.5 -106.1,-40.5 -146.5,0 l -268.6,268.5 c -2.1,2.1 -3.4,4.8 -3.8,7.7 l -19.9,147.4 c -0.6,4.2 0.9,8.4 3.8,11.3 2.5,2.5 6,4 9.5,4 0.6,0 1.2,0 1.8,-0.1 l 88.8,-12 c 7.4,-1 12.6,-7.8 11.6,-15.2 -1,-7.4 -7.8,-12.6 -15.2,-11.6 l -71.2,9.6 13.9,-102.8 108.2,108.2 c 2.5,2.5 6,4 9.5,4 3.5,0 7,-1.4 9.5,-4 l 268.6,-268.5 c 19.6,-19.6 30.4,-45.6 30.4,-73.3 0,-27.7 -10.8,-53.7 -30.4,-73.2 z m -141.3,33 45.1,45.1 -245.1,245.1 -45.1,-45.1 z m -136.7,353.4 -44.1,-44.1 245.1,-245.1 44.1,44.1 z m 263.9,-264.4 -107.9,-107.9 c 13.7,-11.3 30.8,-17.5 48.8,-17.5 20.5,0 39.7,8 54.2,22.4 14.5,14.4 22.4,33.7 22.4,54.2 0,18.1 -6.2,35.1 -17.5,48.8 z"
   id="path2"
   style="fill:#f0c38e"
   inkscape:connector-curvature="0" />
</g><path
   style="fill:#312c51;fill-opacity:0"
   d="m 402.12383,69.191843 c -44.9,-44.9 -104.5,-69.59999991 -168,-69.59999991 -63.5,0 -123.1,24.69999991 -168.000002,69.59999991 C 21.223829,114.09185 -3.4761718,173.69185 -3.4761718,237.19185 c 0,63.5 24.7000008,123.1 69.5999998,168 44.900002,44.9 104.500002,69.6 168.000002,69.6 63.5,0 123.1,-24.7 168,-69.6 44.9,-44.9 69.6,-104.5 69.6,-168 0,-63.5 -24.7,-123.1 -69.6,-168.000007 z m -19.1,316.900007 c -39.8,39.8 -92.7,61.7 -148.9,61.7 -56.2,0 -109.1,-21.9 -148.900002,-61.7 -82.0999998,-82.1 -82.0999998,-215.7 0,-297.800004 39.800002,-39.800003 92.700002,-61.700003 148.900002,-61.700003 56.2,0 109.1,21.9 148.9,61.700003 82.1,82.100004 82.1,215.700004 0,297.800004 z"
   id="path2-3"
   inkscape:connector-curvature="0" /></svg>