<?xml version="1.0" encoding="UTF-8" standalone="no"?>
<!-- Generator: Adobe Illustrator 19.1.0, SVG Export Plug-In . SVG Version: 6.00 Build 0)  -->

<svg
   xmlns:dc="http://purl.org/dc/elements/1.1/"
   xmlns:cc="http://creativecommons.org/ns#"
   xmlns:rdf="http://www.w3.org/1999/02/22-rdf-syntax-ns#"
   xmlns:svg="http://www.w3.org/2000/svg"
   xmlns="http://www.w3.org/2000/svg"
   xmlns:xlink="http://www.w3.org/1999/xlink"
   xmlns:sodipodi="http://sodipodi.sourceforge.net/DTD/sodipodi-0.dtd"
   xmlns:inkscape="http://www.inkscape.org/namespaces/inkscape"
   version="1.1"
   id="Capa_1"
   x="0px"
   y="0px"
   viewBox="0 0 475.2 475.2"
   style="enable-background:new 0 0 475.2 475.2;"
   xml:space="preserve"
   sodipodi:docname="gmail.svg"
   inkscape:version="0.92.5 (2060ec1f9f, 2020-04-08)"><metadata
   id="metadata45"><rdf:RDF><cc:Work
       rdf:about=""><dc:format>image/svg+xml</dc:format><dc:type
         rdf:resource="http://purl.org/dc/dcmitype/StillImage" /><dc:title></dc:title></cc:Work></rdf:RDF></metadata><defs
   id="defs43"><linearGradient
   inkscape:collect="always"
   id="linearGradient886"><stop
     style="stop-color:#48426d;stop-opacity:1;"
     offset="0"
     id="stop882" /><stop
     style="stop-color:#48426d;stop-opacity:0;"
     offset="1"
     id="stop884" /></linearGradient>
	

		
		
	
<linearGradient
   inkscape:collect="always"
   xlink:href="#linearGradient886"
   id="linearGradient61"
   gradientUnits="userSpaceOnUse"
   x1="475.54968"
   y1="-1.7734871"
   x2="14.238016"
   y2="460.96201"
   gradientTransform="translate(-0.36423087,-475.56423)" />





</defs><sodipodi:namedview
   pagecolor="#ffffff"
   bordercolor="#666666"
   borderopacity="1"
   objecttolerance="10"
   gridtolerance="10"
   guidetolerance="10"
   inkscape:pageopacity="0"
   inkscape:pageshadow="2"
   inkscape:window-width="1366"
   inkscape:window-height="704"
   id="namedview41"
   showgrid="false"
   inkscape:zoom="0.7023451"
   inkscape:cx="-37.78165"
   inkscape:cy="222.50456"
   inkscape:window-x="0"
   inkscape:window-y="0"
   inkscape:window-maximized="1"
   inkscape:current-layer="Capa_1" />

















<g
   id="g909"><g
     transform="translate(-71.190074,-98.242303)"
     id="g10"
     style="fill:#f0c38e">
</g><g
     transform="translate(-71.190074,-98.242303)"
     id="g12"
     style="fill:#f0c38e">
</g><g
     transform="translate(-71.190074,-98.242303)"
     id="g14"
     style="fill:#f0c38e">
</g><g
     transform="translate(-71.190074,-98.242303)"
     id="g16"
     style="fill:#f0c38e">
</g><g
     transform="translate(-71.190074,-98.242303)"
     id="g18"
     style="fill:#f0c38e">
</g><g
     transform="translate(-71.190074,-98.242303)"
     id="g20"
     style="fill:#f0c38e">
</g><g
     transform="translate(-71.190074,-98.242303)"
     id="g22"
     style="fill:#f0c38e">
</g><g
     transform="translate(-71.190074,-98.242303)"
     id="g24"
     style="fill:#f0c38e">
</g><g
     transform="translate(-71.190074,-98.242303)"
     id="g26"
     style="fill:#f0c38e">
</g><g
     transform="translate(-71.190074,-98.242303)"
     id="g28"
     style="fill:#f0c38e">
</g><g
     transform="translate(-71.190074,-98.242303)"
     id="g30"
     style="fill:#f0c38e">
</g><g
     transform="translate(-71.190074,-98.242303)"
     id="g32"
     style="fill:#f0c38e">
</g><g
     transform="translate(-71.190074,-98.242303)"
     id="g34"
     style="fill:#f0c38e">
</g><g
     transform="translate(-71.190074,-98.242303)"
     id="g36"
     style="fill:#f0c38e">
</g><g
     transform="translate(-71.190074,-98.242303)"
     id="g38"
     style="fill:#f0c38e">
</g><path
     inkscape:connector-curvature="0"
     id="path2"
     d="m 405.96423,71.023802 c -44.9,-44.9 -104.5,-69.5999997 -168,-69.5999997 -63.5,0 -123.1,24.6999997 -167.999999,69.5999997 C 25.064231,115.9238 0.3642319,175.5238 0.3642319,239.0238 c 0,63.5 24.6999991,123.1 69.5999991,168 44.899999,44.9 104.499999,69.6 167.999999,69.6 63.5,0 123.1,-24.7 168,-69.6 44.9,-44.9 69.6,-104.5 69.6,-168 0,-63.5 -24.7,-123.1 -69.6,-167.999998 z m -19.1,316.899998 c -39.8,39.8 -92.7,61.7 -148.9,61.7 -56.2,0 -109.1,-21.9 -148.899999,-61.7 -82.0999991,-82.1 -82.0999991,-215.7 0,-297.799998 39.799999,-39.8 92.699999,-61.7 148.899999,-61.7 56.2,0 109.1,21.9 148.9,61.7 82.1,82.099998 82.1,215.699998 0,297.799998 z"
     style="fill:#312c51" /><g
     transform="matrix(0.51213859,0,0,0.51213859,107.36889,108.42846)"
     id="g872"><g
       id="g5"
       style="fill:#312c51;fill-opacity:1">
	<g
   id="gmail"
   style="fill:#312c51;fill-opacity:1">
		<path
   inkscape:connector-curvature="0"
   d="M 459,51 H 51 C 22.95,51 0,73.95 0,102 v 306 c 0,28.05 22.95,51 51,51 h 408 c 28.05,0 51,-22.95 51,-51 V 102 C 510,73.95 487.05,51 459,51 Z m 0,357 H 408 V 183.6 L 255,280.5 102,183.6 V 408 H 51 V 102 H 81.6 L 255,209.1 428.4,102 H 459 Z"
   id="path2-6"
   style="fill:#312c51;fill-opacity:1" />
	</g>
</g><g
       id="g7">
</g><g
       id="g9">
</g><g
       id="g11">
</g><g
       id="g13">
</g><g
       id="g15">
</g><g
       id="g17">
</g><g
       id="g19">
</g><g
       id="g21">
</g><g
       id="g23">
</g><g
       id="g25">
</g><g
       id="g27">
</g><g
       id="g29">
</g><g
       id="g31">
</g><g
       id="g33">
</g><g
       id="g35">
</g></g></g></svg>