<?xml version="1.0" encoding="UTF-8" standalone="no"?>
<!-- Generator: Adobe Illustrator 19.1.0, SVG Export Plug-In . SVG Version: 6.00 Build 0)  -->

<svg
   xmlns:dc="http://purl.org/dc/elements/1.1/"
   xmlns:cc="http://creativecommons.org/ns#"
   xmlns:rdf="http://www.w3.org/1999/02/22-rdf-syntax-ns#"
   xmlns:svg="http://www.w3.org/2000/svg"
   xmlns="http://www.w3.org/2000/svg"
   xmlns:sodipodi="http://sodipodi.sourceforge.net/DTD/sodipodi-0.dtd"
   xmlns:inkscape="http://www.inkscape.org/namespaces/inkscape"
   version="1.1"
   id="Capa_1"
   x="0px"
   y="0px"
   viewBox="0 0 475.2 475.2"
   style="enable-background:new 0 0 475.2 475.2;"
   xml:space="preserve"
   sodipodi:docname="open.svg"
   inkscape:version="0.92.5 (2060ec1f9f, 2020-04-08)"><metadata
   id="metadata45"><rdf:RDF><cc:Work
       rdf:about=""><dc:format>image/svg+xml</dc:format><dc:type
         rdf:resource="http://purl.org/dc/dcmitype/StillImage" /><dc:title></dc:title></cc:Work></rdf:RDF></metadata><defs
   id="defs43">
	

		
		
	
</defs><sodipodi:namedview
   pagecolor="#ffffff"
   bordercolor="#666666"
   borderopacity="1"
   objecttolerance="10"
   gridtolerance="10"
   guidetolerance="10"
   inkscape:pageopacity="0"
   inkscape:pageshadow="2"
   inkscape:window-width="1366"
   inkscape:window-height="704"
   id="namedview41"
   showgrid="false"
   inkscape:zoom="0.49663298"
   inkscape:cx="100.67797"
   inkscape:cy="229.54577"
   inkscape:window-x="0"
   inkscape:window-y="0"
   inkscape:window-maximized="1"
   inkscape:current-layer="Capa_1" />
















<g
   style="fill:#f0c38e"
   id="g10">
</g><g
   style="fill:#f0c38e"
   id="g12">
</g><g
   style="fill:#f0c38e"
   id="g14">
</g><g
   style="fill:#f0c38e"
   id="g16">
</g><g
   style="fill:#f0c38e"
   id="g18">
</g><g
   style="fill:#f0c38e"
   id="g20">
</g><g
   style="fill:#f0c38e"
   id="g22">
</g><g
   style="fill:#f0c38e"
   id="g24">
</g><g
   style="fill:#f0c38e"
   id="g26">
</g><g
   style="fill:#f0c38e"
   id="g28">
</g><g
   style="fill:#f0c38e"
   id="g30">
</g><g
   style="fill:#f0c38e"
   id="g32">
</g><g
   style="fill:#f0c38e"
   id="g34">
</g><g
   style="fill:#f0c38e"
   id="g36">
</g><g
   style="fill:#f0c38e"
   id="g38">
</g><path
   style="fill:#312c51;fill-opacity:0"
   d="m 407.38803,69.6 c -44.9,-44.9 -104.5,-69.6 -168,-69.6 -63.5,0 -123.1,24.7 -167.999997,69.6 -44.9,44.9 -69.5999987,104.5 -69.5999987,168 0,63.5 24.6999987,123.1 69.5999987,168 44.899997,44.9 104.499997,69.6 167.999997,69.6 63.5,0 123.1,-24.7 168,-69.6 44.9,-44.9 69.6,-104.5 69.6,-168 0,-63.5 -24.7,-123.1 -69.6,-168 z m -19.1,316.9 c -39.8,39.8 -92.7,61.7 -148.9,61.7 -56.2,0 -109.1,-21.9 -148.899997,-61.7 -82.0999987,-82.1 -82.0999987,-215.7 0,-297.8 C 130.28803,48.9 183.18803,27 239.38803,27 c 56.2,0 109.1,21.9 148.9,61.7 82.1,82.1 82.1,215.7 0,297.8 z"
   id="path2"
   inkscape:connector-curvature="0" /><path
   inkscape:connector-curvature="0"
   d="m 189.2943,148.16014 c -3.2737,-3.2737 -3.2737,-8.52397 0,-11.79766 l 44.22578,-44.225785 c 1.60597,-1.60597 3.76784,-2.47072 5.86795,-2.47072 2.10011,0 4.26198,0.80299 5.86795,2.47072 l 44.22579,44.225795 c 3.27369,3.27369 3.27369,8.52396 0,11.79766 -3.2737,3.27369 -8.52397,3.27369 -11.79767,0 l -29.95741,-29.95742 v 143.1779 c 0,4.63259 -3.70607,8.33866 -8.33866,8.33866 -4.63259,0 -8.33866,-3.70607 -8.33866,-8.33866 v -143.1779 l -29.95741,29.95741 c -3.2737,3.27369 -8.58573,3.27369 -11.79766,0 z"
   id="path2-3"
   style="fill:#f0c38e;stroke-width:0.61767858" /><path
   inkscape:connector-curvature="0"
   d="M 375.7097,279.54038 346.6788,174.53501 c -0.67944,-2.40894 -2.34717,-4.32375 -4.57082,-5.3738 L 341.305,168.7906 c -1.11182,-0.49414 -2.28541,-0.74121 -3.459,-0.74121 h -52.31738 c -4.63259,0 -8.33866,3.70607 -8.33866,8.33866 0,4.63259 3.70607,8.33866 8.33866,8.33866 h 46.69651 l 24.52184,88.82218 h -64.85626 c -4.63259,0 -8.33866,3.70608 -8.33866,8.33867 v 7.53567 c 0,11.05645 -8.95634,20.01279 -20.01279,20.01279 h -50.89671 c -11.05645,0 -20.01279,-8.95634 -20.01279,-20.01279 v -7.53567 c 0,-4.63259 -3.70607,-8.33867 -8.33866,-8.33867 h -62.32377 l 24.64538,-89.00748 h 46.6965 c 4.63259,0 8.33866,-3.70607 8.33866,-8.33866 0,-4.63259 -3.70607,-8.33866 -8.33866,-8.33866 h -52.37915 c -1.17359,0 -2.34718,0.24707 -3.459,0.74121 l -0.80298,0.37061 c -2.22364,1.05005 -3.95314,2.96485 -4.57082,5.3738 l -29.0309,105.00536 c -0.1853,0.74122 -0.30883,1.48243 -0.30883,2.22365 v 43.79341 c 0,33.16934 26.99255,60.16189 60.16189,60.16189 h 152.93722 c 33.16934,0 60.1619,-26.99255 60.1619,-60.16189 v -43.60811 c 0,-0.80298 -0.0618,-1.5442 -0.30884,-2.22364 z m -16.36848,45.83175 c 0,23.96593 -19.51865,43.48457 -43.48458,43.48457 H 162.91942 c -23.96593,0 -43.48457,-19.51864 -43.48457,-43.48457 v -35.14591 h 56.64113 c 0.43237,19.82748 16.73909,35.82536 36.6901,35.82536 h 50.89672 c 19.95102,0 36.25773,-15.99788 36.69011,-35.82536 h 59.11184 v 35.14591 z"
   id="path4"
   style="fill:#f0c38e;stroke-width:0.61767858" /></svg>