<?xml version="1.0" encoding="UTF-8" standalone="no"?>
<!-- Generator: Adobe Illustrator 19.1.0, SVG Export Plug-In . SVG Version: 6.00 Build 0)  -->

<svg
   xmlns:dc="http://purl.org/dc/elements/1.1/"
   xmlns:cc="http://creativecommons.org/ns#"
   xmlns:rdf="http://www.w3.org/1999/02/22-rdf-syntax-ns#"
   xmlns:svg="http://www.w3.org/2000/svg"
   xmlns="http://www.w3.org/2000/svg"
   xmlns:sodipodi="http://sodipodi.sourceforge.net/DTD/sodipodi-0.dtd"
   xmlns:inkscape="http://www.inkscape.org/namespaces/inkscape"
   version="1.1"
   id="Capa_1"
   x="0px"
   y="0px"
   viewBox="0 0 475.2 475.2"
   style="enable-background:new 0 0 475.2 475.2;"
   xml:space="preserve"
   sodipodi:docname="play.svg"
   inkscape:version="0.92.5 (2060ec1f9f, 2020-04-08)"><metadata
   id="metadata45"><rdf:RDF><cc:Work
       rdf:about=""><dc:format>image/svg+xml</dc:format><dc:type
         rdf:resource="http://purl.org/dc/dcmitype/StillImage" /><dc:title /></cc:Work></rdf:RDF></metadata><defs
   id="defs43">
	

		
		
	

</defs><sodipodi:namedview
   pagecolor="#ffffff"
   bordercolor="#666666"
   borderopacity="1"
   objecttolerance="10"
   gridtolerance="10"
   guidetolerance="10"
   inkscape:pageopacity="0"
   inkscape:pageshadow="2"
   inkscape:window-width="1366"
   inkscape:window-height="704"
   id="namedview41"
   showgrid="false"
   inkscape:zoom="0.7023451"
   inkscape:cx="23.126297"
   inkscape:cy="261.98245"
   inkscape:window-x="0"
   inkscape:window-y="0"
   inkscape:window-maximized="1"
   inkscape:current-layer="Capa_1" />

<path
   style="opacity:1;fill:#312c51;fill-opacity:1;stroke:none;stroke-width:1.17502809;stroke-opacity:1"
   d="M 167.74118,123.35488 V 351.84512 L 379.45883,237.60098 Z"
   id="rect44"
   inkscape:connector-curvature="0" /><g
   id="g10">
</g>
<g
   id="g12">
</g>
<g
   id="g14">
</g>
<g
   id="g16">
</g>
<g
   id="g18">
</g>
<g
   id="g20">
</g>
<g
   id="g22">
</g>
<g
   id="g24">
</g>
<g
   id="g26">
</g>
<g
   id="g28">
</g>
<g
   id="g30">
</g>
<g
   id="g32">
</g>
<g
   id="g34">
</g>
<g
   id="g36">
</g>
<g
   id="g38">
</g>
<path
   d="M 405.6,69.6 C 360.7,24.7 301.1,0 237.6,0 174.1,0 114.5,24.7 69.6,69.6 24.7,114.5 0,174.1 0,237.6 c 0,63.5 24.7,123.1 69.6,168 44.9,44.9 104.5,69.6 168,69.6 63.5,0 123.1,-24.7 168,-69.6 44.9,-44.9 69.6,-104.5 69.6,-168 0,-63.5 -24.7,-123.1 -69.6,-168 z m -19.1,316.9 c -39.8,39.8 -92.7,61.7 -148.9,61.7 -56.2,0 -109.1,-21.9 -148.9,-61.7 C 6.6,304.4 6.6,170.8 88.7,88.7 128.5,48.9 181.4,27 237.6,27 c 56.2,0 109.1,21.9 148.9,61.7 82.1,82.1 82.1,215.7 0,297.8 z"
   id="path2"
   style="fill:#312c51"
   inkscape:connector-curvature="0" /></svg>