<?xml version="1.0" encoding="UTF-8" standalone="no"?>
<!-- Generator: Adobe Illustrator 19.1.0, SVG Export Plug-In . SVG Version: 6.00 Build 0)  -->

<svg
   xmlns:dc="http://purl.org/dc/elements/1.1/"
   xmlns:cc="http://creativecommons.org/ns#"
   xmlns:rdf="http://www.w3.org/1999/02/22-rdf-syntax-ns#"
   xmlns:svg="http://www.w3.org/2000/svg"
   xmlns="http://www.w3.org/2000/svg"
   xmlns:xlink="http://www.w3.org/1999/xlink"
   xmlns:sodipodi="http://sodipodi.sourceforge.net/DTD/sodipodi-0.dtd"
   xmlns:inkscape="http://www.inkscape.org/namespaces/inkscape"
   version="1.1"
   id="Capa_1"
   x="0px"
   y="0px"
   viewBox="0 0 475.2 475.2"
   style="enable-background:new 0 0 475.2 475.2;"
   xml:space="preserve"
   sodipodi:docname="show.svg"
   inkscape:version="0.92.5 (2060ec1f9f, 2020-04-08)"><metadata
   id="metadata45"><rdf:RDF><cc:Work
       rdf:about=""><dc:format>image/svg+xml</dc:format><dc:type
         rdf:resource="http://purl.org/dc/dcmitype/StillImage" /><dc:title></dc:title></cc:Work></rdf:RDF></metadata><defs
   id="defs43"><linearGradient
   inkscape:collect="always"
   id="linearGradient886"><stop
     style="stop-color:#48426d;stop-opacity:1;"
     offset="0"
     id="stop882" /><stop
     style="stop-color:#48426d;stop-opacity:0;"
     offset="1"
     id="stop884" /></linearGradient>
	

		
		
	
<linearGradient
   inkscape:collect="always"
   xlink:href="#linearGradient886"
   id="linearGradient61"
   gradientUnits="userSpaceOnUse"
   x1="475.54968"
   y1="-1.7734871"
   x2="14.238016"
   y2="460.96201"
   gradientTransform="translate(-0.36423087,-475.56423)" />





</defs><sodipodi:namedview
   pagecolor="#ffffff"
   bordercolor="#666666"
   borderopacity="1"
   objecttolerance="10"
   gridtolerance="10"
   guidetolerance="10"
   inkscape:pageopacity="0"
   inkscape:pageshadow="2"
   inkscape:window-width="1366"
   inkscape:window-height="704"
   id="namedview41"
   showgrid="false"
   inkscape:zoom="0.7023451"
   inkscape:cx="-15.712727"
   inkscape:cy="228.19977"
   inkscape:window-x="0"
   inkscape:window-y="0"
   inkscape:window-maximized="1"
   inkscape:current-layer="Capa_1" />
















<g
   style="fill:#f0c38e"
   id="g10"
   transform="translate(-71.190074,-98.242303)">
</g><g
   style="fill:#f0c38e"
   id="g12"
   transform="translate(-71.190074,-98.242303)">
</g><g
   style="fill:#f0c38e"
   id="g14"
   transform="translate(-71.190074,-98.242303)">
</g><g
   style="fill:#f0c38e"
   id="g16"
   transform="translate(-71.190074,-98.242303)">
</g><g
   style="fill:#f0c38e"
   id="g18"
   transform="translate(-71.190074,-98.242303)">
</g><g
   style="fill:#f0c38e"
   id="g20"
   transform="translate(-71.190074,-98.242303)">
</g><g
   style="fill:#f0c38e"
   id="g22"
   transform="translate(-71.190074,-98.242303)">
</g><g
   style="fill:#f0c38e"
   id="g24"
   transform="translate(-71.190074,-98.242303)">
</g><g
   style="fill:#f0c38e"
   id="g26"
   transform="translate(-71.190074,-98.242303)">
</g><g
   style="fill:#f0c38e"
   id="g28"
   transform="translate(-71.190074,-98.242303)">
</g><g
   style="fill:#f0c38e"
   id="g30"
   transform="translate(-71.190074,-98.242303)">
</g><g
   style="fill:#f0c38e"
   id="g32"
   transform="translate(-71.190074,-98.242303)">
</g><g
   style="fill:#f0c38e"
   id="g34"
   transform="translate(-71.190074,-98.242303)">
</g><g
   style="fill:#f0c38e"
   id="g36"
   transform="translate(-71.190074,-98.242303)">
</g><g
   style="fill:#f0c38e"
   id="g38"
   transform="translate(-71.190074,-98.242303)">
</g><path
   style="fill:#312c51"
   d="m 405.96423,71.023802 c -44.9,-44.9 -104.5,-69.5999997 -168,-69.5999997 -63.5,0 -123.1,24.6999997 -167.999999,69.5999997 C 25.064231,115.9238 0.3642319,175.5238 0.3642319,239.0238 c 0,63.5 24.6999991,123.1 69.5999991,168 44.899999,44.9 104.499999,69.6 167.999999,69.6 63.5,0 123.1,-24.7 168,-69.6 44.9,-44.9 69.6,-104.5 69.6,-168 0,-63.5 -24.7,-123.1 -69.6,-167.999998 z m -19.1,316.899998 c -39.8,39.8 -92.7,61.7 -148.9,61.7 -56.2,0 -109.1,-21.9 -148.899999,-61.7 -82.0999991,-82.1 -82.0999991,-215.7 0,-297.799998 39.799999,-39.8 92.699999,-61.7 148.899999,-61.7 56.2,0 109.1,21.9 148.9,61.7 82.1,82.099998 82.1,215.699998 0,297.799998 z"
   id="path2"
   inkscape:connector-curvature="0" />
<rect
   style="opacity:1;fill:#312c51;fill-opacity:0.9842932;stroke:none;stroke-width:0.78590053;stroke-opacity:1"
   id="rect852"
   width="249.3026"
   height="29.682108"
   x="113.31293"
   y="224.18274" /><rect
   y="164.81853"
   x="113.31293"
   height="29.682108"
   width="249.3026"
   id="rect858"
   style="opacity:1;fill:#312c51;fill-opacity:0.9842932;stroke:none;stroke-width:0.78590053;stroke-opacity:1" /><rect
   style="opacity:1;fill:#312c51;fill-opacity:0.9842932;stroke:none;stroke-width:0.78590053;stroke-opacity:1"
   id="rect862"
   width="249.3026"
   height="29.682108"
   x="113.31293"
   y="283.54697" /></svg>