<?xml version="1.0" encoding="UTF-8" standalone="no"?>
<svg
   xmlns:osb="http://www.openswatchbook.org/uri/2009/osb"
   xmlns:dc="http://purl.org/dc/elements/1.1/"
   xmlns:cc="http://creativecommons.org/ns#"
   xmlns:rdf="http://www.w3.org/1999/02/22-rdf-syntax-ns#"
   xmlns:svg="http://www.w3.org/2000/svg"
   xmlns="http://www.w3.org/2000/svg"
   xmlns:sodipodi="http://sodipodi.sourceforge.net/DTD/sodipodi-0.dtd"
   xmlns:inkscape="http://www.inkscape.org/namespaces/inkscape"
   id="svg8"
   version="1.1"
   viewBox="0 0 210 297"
   height="297mm"
   width="210mm"
   sodipodi:docname="welcome.svg"
   inkscape:version="0.92.5 (2060ec1f9f, 2020-04-08)">
  <sodipodi:namedview
     pagecolor="#ffffff"
     bordercolor="#666666"
     borderopacity="1"
     objecttolerance="10"
     gridtolerance="10"
     guidetolerance="10"
     inkscape:pageopacity="0"
     inkscape:pageshadow="2"
     inkscape:window-width="1366"
     inkscape:window-height="704"
     id="namedview6"
     showgrid="false"
     inkscape:snap-global="false"
     inkscape:zoom="0.4204826"
     inkscape:cx="592.67184"
     inkscape:cy="850.67399"
     inkscape:window-x="0"
     inkscape:window-y="0"
     inkscape:window-maximized="1"
     inkscape:current-layer="svg8" />
  <defs
     id="defs2">
    <linearGradient
       id="linearGradient3107"
       osb:paint="solid">
      <stop
         style="stop-color:#e44d26;stop-opacity:1;"
         offset="0"
         id="stop3105" />
    </linearGradient>
    <linearGradient
       id="a"
       gradientUnits="userSpaceOnUse"
       x1="-825.508"
       y1="1338.301"
       x2="-825.508"
       y2="1419.1021"
       gradientTransform="matrix(0.29301633,0,0,-0.29301633,272.15324,684.63028)">
      <stop
         offset=".387"
         stop-color="#d1d3d4"
         stop-opacity="0"
         id="stop12" />
      <stop
         offset="1"
         stop-color="#d1d3d4"
         id="stop14" />
    </linearGradient>
    <linearGradient
       id="b"
       gradientUnits="userSpaceOnUse"
       x1="-724.552"
       y1="1378.6021"
       x2="-724.552"
       y2="1462.5909"
       gradientTransform="matrix(0.29301633,0,0,-0.29301633,272.15324,684.63028)">
      <stop
         offset=".387"
         stop-color="#d1d3d4"
         stop-opacity="0"
         id="stop19" />
      <stop
         offset="1"
         stop-color="#d1d3d4"
         id="stop21" />
    </linearGradient>
    <linearGradient
       id="c"
       gradientUnits="userSpaceOnUse"
       x1="-874.10303"
       y1="1302.2629"
       x2="-680.039"
       y2="1302.2629"
       gradientTransform="matrix(0.29301633,0,0,-0.29301633,272.15324,684.63028)">
      <stop
         offset="0"
         stop-color="#e8e7e5"
         id="stop26" />
      <stop
         offset="1"
         stop-color="#fff"
         id="stop28" />
    </linearGradient>
    <linearGradient
       id="d"
       gradientUnits="userSpaceOnUse"
       x1="-883.03198"
       y1="1442.031"
       x2="-672.341"
       y2="1442.031"
       gradientTransform="matrix(0.29301633,0,0,-0.29301633,272.15324,684.63028)">
      <stop
         offset="0"
         stop-color="#e8e7e5"
         id="stop35" />
      <stop
         offset="1"
         stop-color="#fff"
         id="stop37" />
    </linearGradient>
    <filter
       inkscape:collect="always"
       style="color-interpolation-filters:sRGB"
       id="filter3225"
       x="-0.032808397"
       width="1.0656168"
       y="-0.1351573"
       height="1.2703146">
      <feGaussianBlur
         inkscape:collect="always"
         stdDeviation="1.4683603"
         id="feGaussianBlur3227" />
    </filter>
    <filter
       inkscape:collect="always"
       style="color-interpolation-filters:sRGB"
       id="filter1046"
       x="-0.0089035132"
       width="1.017807"
       y="-0.033475168"
       height="1.0669503">
      <feGaussianBlur
         inkscape:collect="always"
         stdDeviation="0.65079573"
         id="feGaussianBlur1048" />
    </filter>
    <filter
       inkscape:collect="always"
       style="color-interpolation-filters:sRGB"
       id="filter1100"
       x="-0.04550333"
       width="1.0910067"
       y="-0.1200968"
       height="1.2401936">
      <feGaussianBlur
         inkscape:collect="always"
         stdDeviation="2.2317447"
         id="feGaussianBlur1102" />
    </filter>
    <filter
       inkscape:collect="always"
       style="color-interpolation-filters:sRGB"
       id="filter1072"
       x="-0.017038487"
       width="1.034077"
       y="-0.092990497"
       height="1.185981">
      <feGaussianBlur
         inkscape:collect="always"
         stdDeviation="0.29688507"
         id="feGaussianBlur1074" />
    </filter>
    <filter
       inkscape:collect="always"
       style="color-interpolation-filters:sRGB"
       id="filter1051"
       x="-0.0085760321"
       width="1.0171521"
       y="-0.019974981"
       height="1.03995">
      <feGaussianBlur
         inkscape:collect="always"
         stdDeviation="0.063420563"
         id="feGaussianBlur1053" />
    </filter>
  </defs>
  <metadata
     id="metadata5">
    <rdf:RDF>
      <cc:Work
         rdf:about="">
        <dc:format>image/svg+xml</dc:format>
        <dc:type
           rdf:resource="http://purl.org/dc/dcmitype/StillImage" />
        <dc:title />
      </cc:Work>
    </rdf:RDF>
  </metadata>
  <g
     id="g935">
    <text
       xml:space="preserve"
       style="font-style:normal;font-variant:normal;font-weight:normal;font-stretch:normal;font-size:10.58333302px;line-height:1.25;font-family:Barlow;-inkscape-font-specification:Barlow;letter-spacing:0px;word-spacing:0px;fill:#000000;fill-opacity:0.37172773;stroke:none;stroke-width:0.26458332;filter:url(#filter1072)"
       x="145.61119"
       y="22.752611"
       id="text882"><tspan
         sodipodi:role="line"
         id="tspan880"
         x="145.61119"
         y="22.752611"
         style="font-style:normal;font-variant:normal;font-weight:normal;font-stretch:normal;font-family:Barlow;-inkscape-font-specification:Barlow;fill:#000000;stroke-width:0.26458332;fill-opacity:0.37172773;">manager</tspan></text>
    <g
       id="layer1" />
    <path
       id="path2-4"
       d="M 915.16066,167.62737 H 1576.619 V 829.08449 H 915.16066 Z"
       style="fill:none;stroke-width:1.22814333"
       inkscape:connector-curvature="0" />
    <text
       transform="matrix(0.81965014,0,-2.1407332,1.5673309,24.955719,50.005701)"
       id="text3393"
       y="86.292442"
       x="133.08949"
       style="font-style:normal;font-variant:normal;font-weight:normal;font-stretch:normal;font-size:65.16586304px;line-height:1.25;font-family:Barlow;-inkscape-font-specification:Barlow;letter-spacing:0px;word-spacing:0px;fill:#000000;fill-opacity:0.18324609;stroke:none;stroke-width:1.62914658;filter:url(#filter1046)"
       xml:space="preserve"><tspan
         style="font-style:normal;font-variant:normal;font-weight:normal;font-stretch:normal;font-family:Barlow;-inkscape-font-specification:Barlow;fill:#000000;fill-opacity:0.18324609;stroke-width:1.62914658"
         y="86.292442"
         x="133.08949"
         id="tspan3391"
         sodipodi:role="line">KASSI</tspan></text>
    <g
       transform="matrix(1.2514964,0,0,1.2995419,-58.080188,-56.471318)"
       style="fill:#000000;filter:url(#filter1100)"
       id="g1066">
      <path
         id="path1060"
         d="m 161.19076,130.28839 -16.03846,4.31853 -16.03872,-4.31853 -3.70105,-40.096177 h 39.47977 z"
         style="fill:#000000;stroke-width:0.11774811"
         inkscape:connector-curvature="0" />
      <path
         inkscape:connector-curvature="0"
         style="fill:#000000;stroke-width:0.11774811"
         d="m 200.30786,130.41482 -16.03846,4.31853 -16.03872,-4.31853 -3.70105,-40.096178 h 39.47977 z"
         id="path1062" />
      <path
         style="fill:#000000;stroke-width:0.15371276"
         inkscape:connector-curvature="0"
         id="path1064"
         d="m 125.51328,90.318639 -3.57244,40.020661 -16.05837,4.45183 -16.014106,-4.44568 -3.568749,-40.026811 z" />
    </g>
    <g
       transform="matrix(1.2361765,0,0,1.2836338,-54.444032,-54.766043)"
       id="g1058">
      <path
         inkscape:connector-curvature="0"
         style="fill:#2062af;stroke-width:0.11774811"
         d="m 161.19076,130.28839 -16.03846,4.31853 -16.03872,-4.31853 -3.70105,-40.096177 h 39.47977 z"
         id="path4-4" />
      <path
         id="path1154"
         d="m 200.30786,130.41482 -16.03846,4.31853 -16.03872,-4.31853 -3.70105,-40.096178 h 39.47977 z"
         style="fill:#d4b830;stroke-width:0.11774811"
         inkscape:connector-curvature="0" />
      <path
         d="m 125.51328,90.318639 -3.57244,40.020661 -16.05837,4.45183 -16.014106,-4.44568 -3.568749,-40.026811 z"
         id="path1481"
         inkscape:connector-curvature="0"
         style="fill:#e44d26;stroke-width:0.15371276" />
    </g>
    <g
       transform="matrix(1.2579014,0,0,1.3061928,-56.365133,-56.783988)"
       style="fill:#1a1a1a;filter:url(#filter3225)"
       id="g3167">
      <path
         d="m 104.08309,63.668165 q 0.20144,0 0.31654,0.144856 0.11511,0.144849 0.11511,0.398349 v 4.780201 q 0,0.25349 -0.11511,0.39835 -0.1151,0.14486 -0.31654,0.14486 h -4.834475 q -0.143882,0 -0.143882,0.18106 v 18.75866 q 0,0.25349 -0.115106,0.39835 -0.115109,0.14485 -0.316544,0.14485 h -4.546708 q -0.201435,0 -0.31654,-0.14485 -0.115105,-0.14486 -0.115105,-0.39835 v -18.75866 q 0,-0.18106 -0.143886,-0.18106 h -4.69059 q -0.201435,0 -0.31654,-0.14486 -0.115109,-0.14486 -0.115109,-0.39835 V 64.21137 q 0,-0.2535 0.115109,-0.398349 0.115105,-0.144856 0.31654,-0.144856 z"
         style="font-style:normal;font-variant:normal;font-weight:normal;font-stretch:normal;font-size:52.28923798px;line-height:1.25;font-family:Barlow;-inkscape-font-specification:Barlow;letter-spacing:0px;word-spacing:0px;fill:#1a1a1a;fill-opacity:1;stroke:none;stroke-width:0.80704147"
         id="path3155"
         inkscape:connector-curvature="0" />
      <path
         d="m 113.55052,89.452261 q -2.38845,0 -4.23016,-1.19505 -1.81293,-1.23126 -2.82011,-3.40407 -1.00718,-2.20904 -1.00718,-5.10613 v -6.80815 q 0,-2.82467 1.00718,-4.99749 1.00718,-2.17281 2.82011,-3.367864 1.84171,-1.195047 4.23016,-1.195047 2.41724,0 4.23017,1.195047 1.8417,1.195054 2.84889,3.367864 1.00718,2.17282 1.00718,4.99749 v 6.80815 q 0,2.89709 -1.00718,5.10613 -1.00719,2.17281 -2.84889,3.40407 -1.81293,1.19505 -4.23017,1.19505 z m 0,-5.83039 q 1.20862,0 1.92804,-0.97777 0.74819,-1.01398 0.74819,-2.6798 v -7.09787 q 0,-1.66583 -0.74819,-2.6436 -0.71942,-1.01399 -1.92804,-1.01399 -1.17984,0 -1.92803,1.01399 -0.71942,0.97777 -0.71942,2.6436 v 7.09787 q 0,1.66582 0.71942,2.6798 0.74819,0.97777 1.92803,0.97777 z"
         style="font-style:normal;font-variant:normal;font-weight:normal;font-stretch:normal;font-size:52.28923798px;line-height:1.25;font-family:Barlow;-inkscape-font-specification:Barlow;letter-spacing:0px;word-spacing:0px;fill:#1a1a1a;fill-opacity:1;stroke:none;stroke-width:0.80704147"
         id="path3157"
         inkscape:connector-curvature="0" />
      <path
         d="m 139.09315,63.668165 q 1.93588,0 3.40824,1.050198 1.47236,1.013978 2.26307,2.933308 0.81798,1.88311 0.81798,4.34563 0,2.42631 -0.84524,4.27321 -0.84525,1.8469 -2.37214,2.86087 -1.52688,1.01398 -3.5173,1.01398 h -2.89018 q -0.13633,0 -0.13633,0.18107 v 8.14807 q 0,0.25349 -0.10906,0.39835 -0.10907,0.14485 -0.29993,0.14485 h -4.30801 q -0.19086,0 -0.29992,-0.14485 -0.10907,-0.14486 -0.10907,-0.39835 V 64.21137 q 0,-0.2535 0.10907,-0.398349 0.10906,-0.144856 0.29992,-0.144856 z m -0.84524,11.045166 q 1.00884,0 1.60869,-0.68807 0.62712,-0.72427 0.62712,-1.88311 0,-1.19505 -0.62712,-1.91932 -0.59985,-0.72427 -1.60869,-0.72427 h -2.29033 q -0.13633,0 -0.13633,0.18106 v 4.85263 q 0,0.18108 0.13633,0.18108 z"
         style="font-style:normal;font-variant:normal;font-weight:normal;font-stretch:normal;font-size:52.28923798px;line-height:1.25;font-family:Barlow;-inkscape-font-specification:Barlow;letter-spacing:0px;word-spacing:0px;fill:#1a1a1a;fill-opacity:1;stroke:none;stroke-width:0.78557158"
         id="path3159"
         inkscape:connector-curvature="0" />
      <path
         d="m 154.36201,89.307411 q -2.29034,0 -4.00809,-0.97777 -1.71774,-1.01399 -2.67205,-2.86087 -0.92704,-1.8469 -0.92704,-4.27321 v -0.507 q 0,-0.25349 0.10906,-0.39834 0.10906,-0.14486 0.29992,-0.14486 h 4.22622 q 0.19086,0 0.29993,0.14486 0.10906,0.14485 0.10906,0.39834 v 0.21729 q 0,1.01398 0.79071,1.81068 0.81798,0.76048 2.154,0.76048 1.00884,0 1.4451,-0.54319 0.43625,-0.57943 0.43625,-1.26749 0,-0.7967 -0.54532,-1.19505 -0.54531,-0.39834 -1.99041,-0.97776 l -0.7907,-0.28971 q -2.69933,-1.0864 -4.52615,-2.89709 -1.82681,-1.81068 -1.82681,-5.25097 0,-2.28147 0.92704,-4.01972 0.92704,-1.77446 2.53573,-2.716017 1.63595,-0.941554 3.65363,-0.941554 2.12674,0 3.84449,1.050198 1.74502,1.050193 2.72658,2.969513 1.00884,1.91932 1.00884,4.38184 v 0.32593 q 0,0.2535 -0.10906,0.39835 -0.10907,0.14485 -0.29993,0.14485 h -4.22621 q -0.19086,0 -0.29993,-0.14485 -0.10906,-0.14485 -0.10906,-0.39835 v -0.0362 q 0,-1.0864 -0.73618,-1.95553 -0.73618,-0.90535 -1.9904,-0.90535 -0.87251,0 -1.39057,0.47078 -0.49078,0.47078 -0.49078,1.3037 0,0.65184 0.35446,1.12261 0.38171,0.43456 1.14516,0.86914 0.76345,0.39835 2.34486,1.05019 0.21814,0.10863 1.90862,0.7967 1.71775,0.65184 2.86292,2.42631 1.14517,1.73825 1.14517,4.23699 0,2.42632 -0.92705,4.20078 -0.92703,1.73825 -2.59025,2.67981 -1.66323,0.94155 -3.87176,0.94155 z"
         style="font-style:normal;font-variant:normal;font-weight:normal;font-stretch:normal;font-size:52.28923798px;line-height:1.25;font-family:Barlow;-inkscape-font-specification:Barlow;letter-spacing:0px;word-spacing:0px;fill:#1a1a1a;fill-opacity:1;stroke:none;stroke-width:0.78557158"
         id="path3161"
         inkscape:connector-curvature="0" />
      <path
         d="m 173.48289,89.017701 q -0.19888,0 -0.31252,-0.14485 -0.11364,-0.14486 -0.11364,-0.39835 V 64.21137 q 0,-0.2535 0.11364,-0.398349 0.11364,-0.144856 0.31252,-0.144856 h 4.48889 q 0.19888,0 0.31253,0.144856 0.11363,0.144849 0.11363,0.398349 v 24.263131 q 0,0.25349 -0.11363,0.39835 -0.11365,0.14485 -0.31253,0.14485 z"
         style="font-style:normal;font-variant:normal;font-weight:normal;font-stretch:normal;font-size:52.28923798px;line-height:1.25;font-family:Barlow;-inkscape-font-specification:Barlow;letter-spacing:0px;word-spacing:0px;fill:#1a1a1a;fill-opacity:1;stroke:none;stroke-width:0.80189437"
         id="path3163"
         inkscape:connector-curvature="0" />
      <path
         d="m 188.1428,89.307411 q -2.3865,0 -4.17638,-0.97777 -1.78987,-1.01399 -2.78425,-2.86087 -0.96597,-1.8469 -0.96597,-4.27321 v -0.507 q 0,-0.25349 0.11365,-0.39834 0.11363,-0.14486 0.31251,-0.14486 h 4.40367 q 0.19886,0 0.31252,0.14486 0.11363,0.14485 0.11363,0.39834 v 0.21729 q 0,1.01398 0.82392,1.81068 0.85232,0.76048 2.24445,0.76048 1.05119,0 1.50576,-0.54319 0.45458,-0.57943 0.45458,-1.26749 0,-0.7967 -0.56822,-1.19505 -0.56822,-0.39834 -2.07398,-0.97776 l -0.82391,-0.28971 q -2.81267,-1.0864 -4.71619,-2.89709 -1.90352,-1.81068 -1.90352,-5.25097 0,-2.28147 0.96597,-4.01972 0.96597,-1.77446 2.6422,-2.716017 1.70464,-0.941554 3.80703,-0.941554 2.21604,0 4.00592,1.050198 1.81829,1.050193 2.84107,2.969513 1.05119,1.91932 1.05119,4.38184 v 0.32593 q 0,0.2535 -0.11363,0.39835 -0.11365,0.14485 -0.31252,0.14485 h -4.40367 q -0.19887,0 -0.31251,-0.14485 -0.11365,-0.14485 -0.11365,-0.39835 v -0.0362 q 0,-1.0864 -0.76709,-1.95553 -0.76709,-0.90535 -2.07398,-0.90535 -0.90915,0 -1.44895,0.47078 -0.51139,0.47078 -0.51139,1.3037 0,0.65184 0.36934,1.12261 0.39775,0.43456 1.19325,0.86914 0.7955,0.39835 2.44332,1.05019 0.22729,0.10863 1.98876,0.7967 1.78987,0.65184 2.98312,2.42631 1.19325,1.73825 1.19325,4.23699 0,2.42632 -0.96596,4.20078 -0.96597,1.73825 -2.69902,2.67981 -1.73306,0.94155 -4.03432,0.94155 z"
         style="font-style:normal;font-variant:normal;font-weight:normal;font-stretch:normal;font-size:52.28923798px;line-height:1.25;font-family:Barlow;-inkscape-font-specification:Barlow;letter-spacing:0px;word-spacing:0px;fill:#1a1a1a;fill-opacity:1;stroke:none;stroke-width:0.80189437"
         id="path3165"
         inkscape:connector-curvature="0" />
    </g>
    <path
       id="path6-4"
       d="m 124.98969,65.176626 v 48.422014 l 0.0449,0.0128 16.04465,-4.4863 3.70342,-43.948418 z"
       style="fill:#3c9cd7;stroke-width:0.14832515"
       inkscape:connector-curvature="0" />
    <path
       inkscape:connector-curvature="0"
       style="fill:#fdd83c;stroke-width:0.14832515"
       d="m 173.34533,65.338915 v 48.422015 l 0.0448,0.0128 16.04467,-4.48629 3.7034,-43.948416 z"
       id="path1156" />
    <path
       style="fill:#f16529;stroke-width:0.19362916"
       inkscape:connector-curvature="0"
       id="path1483"
       d="m 76.475033,113.88833 16.040589,-4.61765 3.773713,-43.899714 H 76.475033 Z" />
    <g
       transform="matrix(1.2361765,0,0,1.2836338,-54.444032,-54.766043)"
       id="g3153">
      <path
         inkscape:connector-curvature="0"
         id="path844"
         style="font-style:normal;font-variant:normal;font-weight:normal;font-stretch:normal;font-size:52.28923798px;line-height:1.25;font-family:Barlow;-inkscape-font-specification:Barlow;letter-spacing:0px;word-spacing:0px;fill:#312c51;fill-opacity:1;stroke:none;stroke-width:0.80704147"
         d="m 104.08309,63.668165 q 0.20144,0 0.31654,0.144856 0.11511,0.144849 0.11511,0.398349 v 4.780201 q 0,0.25349 -0.11511,0.39835 -0.1151,0.14486 -0.31654,0.14486 h -4.834475 q -0.143882,0 -0.143882,0.18106 v 18.75866 q 0,0.25349 -0.115106,0.39835 -0.115109,0.14485 -0.316544,0.14485 h -4.546708 q -0.201435,0 -0.31654,-0.14485 -0.115105,-0.14486 -0.115105,-0.39835 v -18.75866 q 0,-0.18106 -0.143886,-0.18106 h -4.69059 q -0.201435,0 -0.31654,-0.14486 -0.115109,-0.14486 -0.115109,-0.39835 V 64.21137 q 0,-0.2535 0.115109,-0.398349 0.115105,-0.144856 0.31654,-0.144856 z" />
      <path
         inkscape:connector-curvature="0"
         id="path846"
         style="font-style:normal;font-variant:normal;font-weight:normal;font-stretch:normal;font-size:52.28923798px;line-height:1.25;font-family:Barlow;-inkscape-font-specification:Barlow;letter-spacing:0px;word-spacing:0px;fill:#312c51;fill-opacity:1;stroke:none;stroke-width:0.80704147"
         d="m 113.55052,89.452261 q -2.38845,0 -4.23016,-1.19505 -1.81293,-1.23126 -2.82011,-3.40407 -1.00718,-2.20904 -1.00718,-5.10613 v -6.80815 q 0,-2.82467 1.00718,-4.99749 1.00718,-2.17281 2.82011,-3.367864 1.84171,-1.195047 4.23016,-1.195047 2.41724,0 4.23017,1.195047 1.8417,1.195054 2.84889,3.367864 1.00718,2.17282 1.00718,4.99749 v 6.80815 q 0,2.89709 -1.00718,5.10613 -1.00719,2.17281 -2.84889,3.40407 -1.81293,1.19505 -4.23017,1.19505 z m 0,-5.83039 q 1.20862,0 1.92804,-0.97777 0.74819,-1.01398 0.74819,-2.6798 v -7.09787 q 0,-1.66583 -0.74819,-2.6436 -0.71942,-1.01399 -1.92804,-1.01399 -1.17984,0 -1.92803,1.01399 -0.71942,0.97777 -0.71942,2.6436 v 7.09787 q 0,1.66582 0.71942,2.6798 0.74819,0.97777 1.92803,0.97777 z" />
      <path
         inkscape:connector-curvature="0"
         id="path848"
         style="font-style:normal;font-variant:normal;font-weight:normal;font-stretch:normal;font-size:52.28923798px;line-height:1.25;font-family:Barlow;-inkscape-font-specification:Barlow;letter-spacing:0px;word-spacing:0px;fill:#312c51;fill-opacity:1;stroke:none;stroke-width:0.78557158"
         d="m 139.09315,63.668165 q 1.93588,0 3.40824,1.050198 1.47236,1.013978 2.26307,2.933308 0.81798,1.88311 0.81798,4.34563 0,2.42631 -0.84524,4.27321 -0.84525,1.8469 -2.37214,2.86087 -1.52688,1.01398 -3.5173,1.01398 h -2.89018 q -0.13633,0 -0.13633,0.18107 v 8.14807 q 0,0.25349 -0.10906,0.39835 -0.10907,0.14485 -0.29993,0.14485 h -4.30801 q -0.19086,0 -0.29992,-0.14485 -0.10907,-0.14486 -0.10907,-0.39835 V 64.21137 q 0,-0.2535 0.10907,-0.398349 0.10906,-0.144856 0.29992,-0.144856 z m -0.84524,11.045166 q 1.00884,0 1.60869,-0.68807 0.62712,-0.72427 0.62712,-1.88311 0,-1.19505 -0.62712,-1.91932 -0.59985,-0.72427 -1.60869,-0.72427 h -2.29033 q -0.13633,0 -0.13633,0.18106 v 4.85263 q 0,0.18108 0.13633,0.18108 z" />
      <path
         inkscape:connector-curvature="0"
         id="path850"
         style="font-style:normal;font-variant:normal;font-weight:normal;font-stretch:normal;font-size:52.28923798px;line-height:1.25;font-family:Barlow;-inkscape-font-specification:Barlow;letter-spacing:0px;word-spacing:0px;fill:#312c51;fill-opacity:1;stroke:none;stroke-width:0.78557158"
         d="m 154.36201,89.307411 q -2.29034,0 -4.00809,-0.97777 -1.71774,-1.01399 -2.67205,-2.86087 -0.92704,-1.8469 -0.92704,-4.27321 v -0.507 q 0,-0.25349 0.10906,-0.39834 0.10906,-0.14486 0.29992,-0.14486 h 4.22622 q 0.19086,0 0.29993,0.14486 0.10906,0.14485 0.10906,0.39834 v 0.21729 q 0,1.01398 0.79071,1.81068 0.81798,0.76048 2.154,0.76048 1.00884,0 1.4451,-0.54319 0.43625,-0.57943 0.43625,-1.26749 0,-0.7967 -0.54532,-1.19505 -0.54531,-0.39834 -1.99041,-0.97776 l -0.7907,-0.28971 q -2.69933,-1.0864 -4.52615,-2.89709 -1.82681,-1.81068 -1.82681,-5.25097 0,-2.28147 0.92704,-4.01972 0.92704,-1.77446 2.53573,-2.716017 1.63595,-0.941554 3.65363,-0.941554 2.12674,0 3.84449,1.050198 1.74502,1.050193 2.72658,2.969513 1.00884,1.91932 1.00884,4.38184 v 0.32593 q 0,0.2535 -0.10906,0.39835 -0.10907,0.14485 -0.29993,0.14485 h -4.22621 q -0.19086,0 -0.29993,-0.14485 -0.10906,-0.14485 -0.10906,-0.39835 v -0.0362 q 0,-1.0864 -0.73618,-1.95553 -0.73618,-0.90535 -1.9904,-0.90535 -0.87251,0 -1.39057,0.47078 -0.49078,0.47078 -0.49078,1.3037 0,0.65184 0.35446,1.12261 0.38171,0.43456 1.14516,0.86914 0.76345,0.39835 2.34486,1.05019 0.21814,0.10863 1.90862,0.7967 1.71775,0.65184 2.86292,2.42631 1.14517,1.73825 1.14517,4.23699 0,2.42632 -0.92705,4.20078 -0.92703,1.73825 -2.59025,2.67981 -1.66323,0.94155 -3.87176,0.94155 z" />
      <path
         inkscape:connector-curvature="0"
         id="path852"
         style="font-style:normal;font-variant:normal;font-weight:normal;font-stretch:normal;font-size:52.28923798px;line-height:1.25;font-family:Barlow;-inkscape-font-specification:Barlow;letter-spacing:0px;word-spacing:0px;fill:#312c51;fill-opacity:1;stroke:none;stroke-width:0.80189437"
         d="m 173.48289,89.017701 q -0.19888,0 -0.31252,-0.14485 -0.11364,-0.14486 -0.11364,-0.39835 V 64.21137 q 0,-0.2535 0.11364,-0.398349 0.11364,-0.144856 0.31252,-0.144856 h 4.48889 q 0.19888,0 0.31253,0.144856 0.11363,0.144849 0.11363,0.398349 v 24.263131 q 0,0.25349 -0.11363,0.39835 -0.11365,0.14485 -0.31253,0.14485 z" />
      <path
         inkscape:connector-curvature="0"
         id="path854"
         style="font-style:normal;font-variant:normal;font-weight:normal;font-stretch:normal;font-size:52.28923798px;line-height:1.25;font-family:Barlow;-inkscape-font-specification:Barlow;letter-spacing:0px;word-spacing:0px;fill:#312c51;fill-opacity:1;stroke:none;stroke-width:0.80189437"
         d="m 188.1428,89.307411 q -2.3865,0 -4.17638,-0.97777 -1.78987,-1.01399 -2.78425,-2.86087 -0.96597,-1.8469 -0.96597,-4.27321 v -0.507 q 0,-0.25349 0.11365,-0.39834 0.11363,-0.14486 0.31251,-0.14486 h 4.40367 q 0.19886,0 0.31252,0.14486 0.11363,0.14485 0.11363,0.39834 v 0.21729 q 0,1.01398 0.82392,1.81068 0.85232,0.76048 2.24445,0.76048 1.05119,0 1.50576,-0.54319 0.45458,-0.57943 0.45458,-1.26749 0,-0.7967 -0.56822,-1.19505 -0.56822,-0.39834 -2.07398,-0.97776 l -0.82391,-0.28971 q -2.81267,-1.0864 -4.71619,-2.89709 -1.90352,-1.81068 -1.90352,-5.25097 0,-2.28147 0.96597,-4.01972 0.96597,-1.77446 2.6422,-2.716017 1.70464,-0.941554 3.80703,-0.941554 2.21604,0 4.00592,1.050198 1.81829,1.050193 2.84107,2.969513 1.05119,1.91932 1.05119,4.38184 v 0.32593 q 0,0.2535 -0.11363,0.39835 -0.11365,0.14485 -0.31252,0.14485 h -4.40367 q -0.19887,0 -0.31251,-0.14485 -0.11365,-0.14485 -0.11365,-0.39835 v -0.0362 q 0,-1.0864 -0.76709,-1.95553 -0.76709,-0.90535 -2.07398,-0.90535 -0.90915,0 -1.44895,0.47078 -0.51139,0.47078 -0.51139,1.3037 0,0.65184 0.36934,1.12261 0.39775,0.43456 1.19325,0.86914 0.7955,0.39835 2.44332,1.05019 0.22729,0.10863 1.98876,0.7967 1.78987,0.65184 2.98312,2.42631 1.19325,1.73825 1.19325,4.23699 0,2.42632 -0.96596,4.20078 -0.96597,1.73825 -2.69902,2.67981 -1.73306,0.94155 -4.03432,0.94155 z" />
    </g>
    <path
       d="m 74.064248,67.793674 q 0,-0.317893 0.181653,-0.499546 0.181652,-0.181654 0.499545,-0.181654 h 7.175292 q 0.317893,0 0.499546,0.181654 0.181652,0.181653 0.181652,0.499546 v 30.426869 q 0,0.317893 -0.181652,0.499545 -0.181653,0.181653 -0.499546,0.181653 h -7.175292 q -0.317893,0 -0.499545,-0.181653 -0.181653,-0.181652 -0.181653,-0.499545 V 86.685581 q 0,-0.227067 -0.227066,-0.227067 h -7.084465 q -0.227067,0 -0.227067,0.227067 v 11.534962 q 0,0.317893 -0.181652,0.499545 -0.181653,0.181653 -0.499546,0.181653 H 58.66916 q -0.317893,0 -0.499545,-0.181653 -0.181653,-0.181652 -0.181653,-0.499545 V 67.793674 q 0,-0.317893 0.181653,-0.499546 0.181652,-0.181654 0.499545,-0.181654 h 7.175292 q 0.317893,0 0.499546,0.181654 0.181652,0.181653 0.181652,0.499546 v 11.126243 q 0,0.227066 0.227067,0.227066 h 7.084465 q 0.227066,0 0.227066,-0.227066 z"
       style="font-style:normal;font-variant:normal;font-weight:normal;font-stretch:normal;font-size:35.97467804px;line-height:1.25;font-family:Barlow;-inkscape-font-specification:Barlow;letter-spacing:0px;word-spacing:0px;fill:#ffffff;fill-opacity:1;stroke:none;stroke-width:1.13533092"
       id="path138"
       inkscape:connector-curvature="0" />
    <path
       d="m 122.38914,107.16368 q -4.77573,-0.76881 -8.35752,-2.88048 -3.5818,-2.16853 -5.57169,-5.388423 -1.93303,-3.210774 -1.93303,-7.019988 v -0.795955 q 0,-0.397978 0.22742,-0.588782 0.22742,-0.190805 0.62539,-0.126738 l 8.81235,1.418643 q 0.39799,0.06407 0.62539,0.328094 0.22742,0.264026 0.22742,0.662004 v 0.341123 q 0,1.59191 1.64877,3.108118 1.70561,1.468526 4.49146,1.917001 2.10359,0.338644 3.01326,-0.367739 0.90965,-0.763232 0.90965,-1.843449 0,-1.250786 -1.13707,-2.059228 -1.13709,-0.808444 -4.15033,-2.20319 l -1.64877,-0.720257 q -5.62854,-2.611719 -9.43776,-6.067637 -3.80921,-3.455916 -3.80921,-8.857038 0,-3.581797 1.93304,-5.999598 1.93303,-2.474656 5.2874,-3.412859 3.41125,-0.929047 7.61843,-0.25176 4.43462,0.7139 8.01641,2.939274 3.63865,2.234526 5.68539,5.577274 2.10359,3.351902 2.10359,7.217968 v 0.511686 q 0,0.397977 -0.22741,0.588783 -0.22742,0.190806 -0.6254,0.126738 l -8.81234,-1.418641 q -0.39799,-0.06407 -0.6254,-0.328097 -0.22741,-0.264025 -0.22741,-0.662002 v -0.05685 q 0,-1.705619 -1.53507,-3.317233 -1.53506,-1.668467 -4.15033,-2.089482 -1.81932,-0.292882 -2.89955,0.272321 -1.02336,0.574356 -1.02336,1.881995 0,1.023372 0.73909,1.881454 0.79595,0.810382 2.38786,1.748901 1.59191,0.881663 4.88945,2.435884 0.45482,0.243779 3.97976,1.891461 3.58181,1.599983 5.96966,4.77023 2.38787,3.113397 2.38787,7.036317 0,3.809227 -1.93303,6.283897 -1.93304,2.41781 -5.40112,3.33772 -3.4681,0.91991 -8.07326,0.17856 z"
       style="font-style:normal;font-variant:normal;font-weight:normal;font-stretch:normal;font-size:35.97467804px;line-height:1.25;font-family:Barlow;-inkscape-font-specification:Barlow;letter-spacing:0px;word-spacing:0px;fill:#ffffff;fill-opacity:1;stroke:none;stroke-width:1.42134798"
       id="path142"
       inkscape:connector-curvature="0" />
    <path
       id="path146"
       transform="scale(0.26458333)"
       d="M 612.92578 253.68555 C 610.84435 253.68555 609.48225 254.64703 608.8418 256.56836 L 575.13477 363.76172 L 580.02734 421.80273 L 602.35742 421.80273 C 604.59898 421.80273 605.95913 420.76112 606.43945 418.67969 L 611.72461 399.94727 C 612.04484 399.30684 612.44543 398.98633 612.92578 398.98633 L 663.83984 398.98633 C 664.31987 398.98633 664.72054 399.30684 665.04102 399.94727 L 670.32422 418.67969 C 670.80457 420.76112 672.16667 421.80273 674.4082 421.80273 L 683.83789 421.80273 L 716.96875 412.53906 L 667.92383 256.56836 C 667.28337 254.64703 665.92125 253.68555 663.83984 253.68555 L 612.92578 253.68555 z M 638.14258 308.44336 C 638.46265 308.44336 638.70303 308.68373 638.86328 309.16406 L 654.23242 362.96094 C 654.55267 363.9216 654.23414 364.40234 653.27344 364.40234 L 623.25195 364.40234 C 622.45122 364.40234 622.13076 363.9216 622.29102 362.96094 L 637.42188 309.16406 C 637.58237 308.68373 637.82273 308.44336 638.14258 308.44336 z "
       style="font-style:normal;font-variant:normal;font-weight:normal;font-stretch:normal;font-size:35.97467804px;line-height:1.25;font-family:Barlow;-inkscape-font-specification:Barlow;letter-spacing:0px;word-spacing:0px;fill:#ffffff;fill-opacity:1;stroke:none;stroke-width:6.00414753" />
    <path
       id="path159"
       transform="scale(0.26458333)"
       d="M 289.03906 253.6543 L 289.03906 373.80273 L 309.62109 373.80273 C 310.42208 373.80273 311.05206 373.57294 311.50977 373.11523 C 311.96747 372.65753 312.19727 372.02755 312.19727 371.22656 L 312.19727 256.22852 C 312.19727 255.42753 311.96747 254.79755 311.50977 254.33984 C 311.05206 253.88213 310.42208 253.6543 309.62109 253.6543 L 289.03906 253.6543 z "
       style="font-style:normal;font-variant:normal;font-weight:normal;font-stretch:normal;font-size:35.97467804px;line-height:1.25;font-family:Barlow;-inkscape-font-specification:Barlow;letter-spacing:0px;word-spacing:0px;fill:#f16529;fill-opacity:0.21989529;stroke:none;stroke-width:4.29101467" />
    <path
       d="m 84.104564,105.78094 q -0.503645,0 -0.611569,-0.46767 l -0.791443,-2.80604 q -0.07195,-0.1439 -0.179873,-0.1439 h -7.626632 q -0.107924,0 -0.179874,0.1439 l -0.791443,2.80604 q -0.107924,0.46767 -0.611569,0.46767 h -6.15167 q -0.647544,0 -0.467671,-0.61157 l 7.590657,-24.139036 q 0.143899,-0.431697 0.61157,-0.431697 h 7.626632 q 0.46767,0 0.611569,0.431697 l 7.590636,24.139036 q 0.036,0.072 0.036,0.21585 0,0.39572 -0.503647,0.39572 z m -7.806505,-8.813824 q -0.03597,0.215848 0.143899,0.215848 h 4.496835 q 0.215848,0 0.143898,-0.215848 l -2.302379,-8.058328 q -0.03598,-0.107924 -0.107924,-0.107924 -0.07195,0 -0.107924,0.107924 z"
       style="font-style:normal;font-variant:normal;font-weight:normal;font-stretch:normal;font-size:35.97467804px;line-height:1.25;font-family:Barlow;-inkscape-font-specification:Barlow;letter-spacing:0px;word-spacing:0px;fill:#ffffff;fill-opacity:1;stroke:none;stroke-width:0.89936697"
       id="path140"
       inkscape:connector-curvature="0" />
    <path
       id="path976"
       transform="scale(0.26458333)"
       d="M 283.06836 304.625 C 281.88998 304.625 281.11844 305.16812 280.75586 306.25586 L 252.06641 397.49023 C 251.61318 399.0312 252.20238 399.80273 253.83398 399.80273 L 277.08594 399.80273 C 278.35496 399.80273 279.12455 399.21354 279.39648 398.03516 L 282.38867 387.42969 C 282.56996 387.0671 282.79642 386.88477 283.06836 386.88477 L 289.92773 386.88477 L 289.92773 367.30664 L 288.91406 367.30664 C 288.46085 367.30664 288.28046 367.0341 288.37109 366.49023 L 289.92773 360.95508 L 289.92773 304.625 L 283.06836 304.625 z "
       style="fill:#cccccc;stroke-width:0.73182672;fill-opacity:0.39215687;opacity:1" />
    <path
       id="path981"
       transform="scale(0.26458333)"
       d="M 472.40234 253.64453 L 472.40234 291.14844 C 473.09647 291.74438 473.76721 292.36537 474.39062 293.04297 C 478.25852 297.10373 480.19336 301.28441 480.19336 305.58203 L 480.19336 305.79688 C 480.19336 306.79965 480.47973 307.63357 481.05273 308.29883 C 481.62574 308.96409 482.41321 309.37763 483.41602 309.53906 L 516.72266 314.90039 C 517.72544 315.06182 518.51291 314.90069 519.08594 314.41992 C 519.65894 313.93915 519.94727 313.19809 519.94727 312.19531 L 519.94727 310.26172 C 519.94727 300.52045 517.29648 291.42621 511.99609 282.98047 C 506.83895 274.5578 499.67606 267.53265 490.50781 261.90234 C 484.8895 258.41167 478.85343 255.65927 472.40234 253.64453 z M 472.40234 315.37109 L 472.40234 352.48438 C 473.86454 353.31843 475.16493 354.10252 476.11133 354.77539 C 478.97639 356.81241 480.4082 359.40701 480.4082 362.55859 C 480.4082 365.2804 479.26273 367.60424 476.9707 369.52734 C 475.82429 370.41756 474.30132 370.97748 472.40234 371.20898 L 472.40234 406.10938 C 480.00733 406.56145 486.91138 405.99131 493.08594 404.35352 C 501.82441 402.03563 508.62935 397.8304 513.5 391.73828 C 518.37063 385.50289 520.80664 377.58633 520.80664 367.98828 C 520.80664 358.10376 517.79793 349.23931 511.78125 341.39453 C 505.76462 333.40651 498.24378 327.39669 489.21875 323.36523 C 480.33701 319.21359 475.32178 316.83104 474.17578 316.2168 C 473.54371 315.91889 473.00954 315.6592 472.40234 315.37109 z "
       style="fill:#3c9cd7;stroke-width:0.56059897;fill-opacity:0.20418848" />
    <path
       d="m 129.85954,111.84614 q -3.31716,0.91296 -5.80502,0.53145 -2.48788,-0.421 -3.87002,-2.0546 -1.34266,-1.64446 -1.34266,-4.2903 v -0.55287 q 0,-0.27643 0.15796,-0.47787 0.15796,-0.20143 0.43439,-0.27751 l 6.12094,-1.68464 q 0.27644,-0.0761 0.4344,0.0384 0.15795,0.11449 0.15795,0.39092 v 0.23695 q 0,1.10572 1.14521,1.65932 1.1847,0.50323 3.11971,-0.0293 1.46113,-0.40214 2.09297,-1.16838 0.63184,-0.80574 0.63184,-1.55606 0,-0.86878 -0.7898,-1.08581 -0.78981,-0.21701 -2.88277,-0.27282 l -1.14521,-7.3e-4 q -3.9095,-0.10871 -6.55534,-1.355004 -2.64582,-1.246301 -2.64582,-4.997847 0,-2.487869 1.34266,-4.752923 1.34266,-2.304542 3.67257,-3.972532 2.3694,-1.678858 5.29165,-2.483135 3.08022,-0.847755 5.56808,-0.387269 2.52736,0.449615 3.949,2.151312 1.46113,1.690828 1.46113,4.376145 v 0.35541 q 0,0.27643 -0.15796,0.477865 -0.15795,0.201433 -0.43439,0.277516 l -6.12094,1.684639 q -0.27644,0.07608 -0.43439,-0.03841 -0.15796,-0.114485 -0.15796,-0.390915 v -0.03948 q 0,-1.1847 -1.06623,-1.839006 -1.06624,-0.693792 -2.88277,-0.193837 -1.26368,0.347797 -2.01399,1.067672 -0.71081,0.709003 -0.71081,1.617271 0,0.710821 0.51336,1.082899 0.55286,0.32172 1.65858,0.491277 1.10571,0.13007 3.39614,0.210504 0.31591,0.03152 2.76429,0.107976 2.48788,0.02609 4.14645,1.50462 1.65858,1.439041 1.65858,4.163858 0,2.64584 -1.34266,4.9504 -1.34266,2.26506 -3.75154,3.9548 -2.4089,1.68973 -5.60758,2.57009 z"
       style="font-style:normal;font-variant:normal;font-weight:normal;font-stretch:normal;font-size:35.97467804px;line-height:1.25;font-family:Barlow;-inkscape-font-specification:Barlow;letter-spacing:0px;word-spacing:0px;fill:#ffffff;fill-opacity:1;stroke:none;stroke-width:0.98724926"
       id="path144"
       inkscape:connector-curvature="0" />
    <path
       id="path990"
       transform="scale(0.26458333)"
       d="M 473.20898 323.07617 C 471.82944 323.89951 470.47826 324.76747 469.16602 325.69727 C 463.29538 329.90008 458.66824 334.90422 455.28516 340.71094 C 451.90208 346.41816 450.21094 352.40713 450.21094 358.67578 C 450.21094 368.1285 453.5443 374.42417 460.21094 377.56445 C 464.01839 379.35791 468.36298 380.66686 473.20898 381.52539 L 473.20898 323.07617 z M 473.20898 389.80664 L 451.4043 395.80859 C 450.70778 396.00029 450.16168 396.34988 449.76367 396.85742 C 449.36566 397.36499 449.16602 397.96755 449.16602 398.66406 L 449.16602 400.75391 C 449.16602 407.42059 450.85715 412.82523 454.24023 416.96875 C 457.72279 421.08491 462.59851 423.67359 468.86719 424.73438 C 470.25974 424.94792 471.71332 425.06655 473.20898 425.11914 L 473.20898 389.80664 z "
       style="fill:#cccccc;stroke-width:0.56059897;fill-opacity:0.39267015" />
    <path
       id="path1001"
       transform="scale(0.26458333)"
       d="M 655.16406 253.68555 L 655.16406 398.98633 L 663.83984 398.98633 C 664.31987 398.98633 664.72054 399.30684 665.04102 399.94727 L 670.32422 418.67969 C 670.80457 420.76112 672.16667 421.80273 674.4082 421.80273 L 683.83789 421.80273 L 715.99609 412.81055 L 716.21875 410.1543 L 667.92383 256.56836 C 667.28337 254.64703 665.92125 253.68555 663.83984 253.68555 L 655.16406 253.68555 z "
       style="font-style:normal;font-variant:normal;font-weight:normal;font-stretch:normal;font-size:35.97467804px;line-height:1.25;font-family:Barlow;-inkscape-font-specification:Barlow;letter-spacing:0px;word-spacing:0px;fill:#fdd83c;fill-opacity:0.39215687;stroke:none;stroke-width:6.00414753" />
    <g
       id="g1021">
      <path
         style="font-style:normal;font-variant:normal;font-weight:normal;font-stretch:normal;font-size:35.97467804px;line-height:1.25;font-family:Barlow;-inkscape-font-specification:Barlow;letter-spacing:0px;word-spacing:0px;fill:#ffffff;fill-opacity:1;stroke:none;stroke-width:4.64074087"
         d="M 715.0957 248.00977 L 705.03711 253.73633 C 704.17495 254.22715 703.49653 254.86085 703.00391 255.63867 C 702.51123 256.41652 702.26562 257.24093 702.26562 258.11133 L 702.44922 320.11523 C 702.44922 320.61262 702.32625 320.99332 702.08008 321.25781 C 701.83355 321.39813 701.58797 321.35204 701.3418 321.11914 L 663.83789 279.05469 C 663.09892 278.23195 661.98969 278.24065 660.51172 279.08203 L 632.61523 294.96484 C 631.7531 295.45565 631.07473 296.08933 630.58203 296.86719 C 630.08936 297.64503 629.84375 298.46944 629.84375 299.33984 L 629.84375 424.30469 C 629.84375 425.17509 630.08936 425.7186 630.58203 425.93555 C 631.07473 426.15242 631.7531 426.01425 632.61523 425.52344 L 661.80469 408.90625 C 662.66685 408.41544 663.34527 407.78166 663.83789 407.00391 C 664.33056 406.226 664.57617 405.40165 664.57617 404.53125 L 664.20703 342.63281 C 664.20703 342.13543 664.33 341.81593 664.57617 341.67578 C 664.8227 341.41106 665.07023 341.39601 665.31641 341.62891 L 703.00391 383.58594 C 703.74288 384.40975 704.85206 384.402 706.33008 383.56055 L 718.12695 376.8457 L 728.98242 248.00977 L 715.0957 248.00977 z "
         transform="scale(0.26458333)"
         id="path148" />
      <path
         style="fill:#b3b3b3;stroke-width:0.56059897;fill-opacity:0.39215687"
         d="M 655.9707 281.66797 L 632.61523 294.96484 C 631.7531 295.45565 631.07473 296.08933 630.58203 296.86719 C 630.08936 297.64503 629.84375 298.46944 629.84375 299.33984 L 629.84375 422.75391 L 634.96484 424.18555 L 655.9707 412.22656 L 655.9707 281.66797 z "
         transform="scale(0.26458333)"
         id="path1013" />
    </g>
    <text
       id="text70"
       y="23.281778"
       x="146.14035"
       style="font-style:normal;font-variant:normal;font-weight:normal;font-stretch:normal;font-size:10.58333302px;line-height:1.25;font-family:Barlow;-inkscape-font-specification:Barlow;letter-spacing:0px;word-spacing:0px;fill:#48426d;fill-opacity:1;stroke:none;stroke-width:0.26458332"
       xml:space="preserve"><tspan
         style="font-style:normal;font-variant:normal;font-weight:normal;font-stretch:normal;font-family:Barlow;-inkscape-font-specification:Barlow;fill:#48426d;stroke-width:0.26458332"
         y="23.281778"
         x="146.14035"
         id="tspan68"
         sodipodi:role="line">manager</tspan></text>
    <text
       id="text885"
       y="58.461826"
       x="189.34317"
       style="font-style:normal;font-variant:normal;font-weight:normal;font-stretch:normal;font-size:10.58333302px;line-height:1.25;font-family:Barlow;-inkscape-font-specification:Barlow;letter-spacing:0px;word-spacing:0px;fill:#b3b3b3;fill-opacity:0.57591623;stroke:none;stroke-width:0.26458332;filter:url(#filter1051)"
       xml:space="preserve"><tspan
         style="font-style:normal;font-variant:normal;font-weight:normal;font-stretch:normal;font-family:Barlow;-inkscape-font-specification:Barlow;fill:#b3b3b3;stroke-width:0.26458332;fill-opacity:0.57591623;"
         y="58.461826"
         x="189.34317"
         id="tspan883"
         sodipodi:role="line">v1.0</tspan></text>
    <text
       xml:space="preserve"
       style="font-style:normal;font-variant:normal;font-weight:normal;font-stretch:normal;font-size:10.58333302px;line-height:1.25;font-family:Barlow;-inkscape-font-specification:Barlow;letter-spacing:0px;word-spacing:0px;fill:#48426d;fill-opacity:1;stroke:none;stroke-width:0.26458332"
       x="189.87233"
       y="58.990993"
       id="text881"><tspan
         sodipodi:role="line"
         id="tspan879"
         x="189.87233"
         y="58.990993"
         style="font-style:normal;font-variant:normal;font-weight:normal;font-stretch:normal;font-family:Barlow;-inkscape-font-specification:Barlow;fill:#48426d;stroke-width:0.26458332">v1.0</tspan></text>
  </g>
</svg>
